<svg width="13" height="13" viewBox="0 0 13 13" fill="none" xmlns="http://www.w3.org/2000/svg">
<path d="M10.9188 10.1591C10.9188 7.69501 10.9188 5.23705 10.9188 2.70498C10.7952 2.78527 10.6964 2.8285 10.6223 2.89643C9.83183 3.58194 9.04133 4.27363 8.25083 4.96532C8.09644 5.10118 7.93587 5.23705 7.73824 5.05795C7.55297 4.89121 7.66413 4.72446 7.7753 4.56389C8.64608 3.27933 9.51069 1.98859 10.3815 0.697858C10.7891 0.0988083 11.3696 -0.117344 12.0119 0.0741052C12.6171 0.259378 12.9753 0.784319 12.9753 1.49453C12.9753 4.8171 12.9753 8.14584 12.9753 11.4684C12.9753 12.1724 12.6603 12.6665 12.0798 12.8765C11.3881 13.1235 10.6532 12.9568 10.2209 12.438C8.67696 10.5914 7.13302 8.74489 5.58907 6.89216C4.49596 5.60142 3.40285 4.29833 2.31591 2.99525C2.26033 2.92731 2.2171 2.84085 2.16152 2.74821C1.98242 2.99525 1.94537 9.87506 2.08124 10.2641C2.18622 10.19 2.28504 10.1283 2.37767 10.0542C3.15582 9.38099 3.93397 8.70784 4.71211 8.03468C4.73682 8.01615 4.75534 7.97909 4.78005 7.97909C4.92827 7.96057 5.10736 7.88646 5.21235 7.94822C5.38527 8.04703 5.32352 8.22613 5.21853 8.37434C4.5639 9.34394 3.90926 10.3197 3.25463 11.2955C3.0076 11.6599 2.76675 12.0304 2.50736 12.3948C2.14299 12.9074 1.54394 13.105 0.951069 12.9135C0.395249 12.7344 0.00617577 12.2219 0 11.6104C0 8.20142 0 4.7924 0 1.38954C0 0.815198 0.352019 0.321136 0.870784 0.123511C1.52542 -0.12352 2.26651 0.0246991 2.69264 0.500234C3.02613 0.876956 3.34109 1.27221 3.66223 1.66128C5.97815 4.4342 8.29406 7.20712 10.61 9.98005C10.6779 10.0665 10.7211 10.1777 10.7705 10.2765C10.8261 10.2333 10.8694 10.1962 10.9188 10.1591Z" fill="#0F1138"/>
</svg>
