<svg width="8" height="15" viewBox="0 0 8 15" fill="none" xmlns="http://www.w3.org/2000/svg">
<path d="M7.70705 1.13599C7.89452 1.32351 7.99983 1.57782 7.99983 1.84299C7.99983 2.10815 7.89452 2.36246 7.70705 2.54999L2.75705 7.49999L7.70705 12.45C7.88921 12.6386 7.99 12.8912 7.98772 13.1534C7.98544 13.4156 7.88027 13.6664 7.69487 13.8518C7.50946 14.0372 7.25865 14.1424 6.99645 14.1447C6.73425 14.1469 6.48165 14.0461 6.29305 13.864L0.636048 8.20699C0.448577 8.01946 0.343262 7.76515 0.343262 7.49999C0.343262 7.23482 0.448577 6.98052 0.636048 6.79299L6.29305 1.13599C6.48058 0.948516 6.73488 0.843201 7.00005 0.843201C7.26521 0.843201 7.51952 0.948516 7.70705 1.13599Z" fill="#0F1138"/>
</svg>
