<svg width="8" height="15" viewBox="0 0 8 15" fill="none" xmlns="http://www.w3.org/2000/svg">
<path d="M0.292952 13.864C0.105481 13.6765 0.000165462 13.4222 0.000165462 13.157C0.000165462 12.8918 0.105481 12.6375 0.292952 12.45L5.24295 7.50001L0.292952 2.55001C0.110794 2.36141 0.00999975 2.10881 0.0122781 1.84661C0.0145564 1.58441 0.119725 1.3336 0.305133 1.14819C0.490541 0.962786 0.741354 0.857617 1.00355 0.855339C1.26575 0.853061 1.51835 0.953855 1.70695 1.13601L7.36395 6.79301C7.55142 6.98054 7.65674 7.23485 7.65674 7.50001C7.65674 7.76518 7.55142 8.01948 7.36395 8.20701L1.70695 13.864C1.51942 14.0515 1.26512 14.1568 0.999952 14.1568C0.734787 14.1568 0.48048 14.0515 0.292952 13.864Z" fill="#0F1138"/>
</svg>
